<svg width="24" height="24" viewBox="0 0 24 24" fill="none" xmlns="http://www.w3.org/2000/svg">
<path d="M12.0061 24C18.5759 24 24 18.5759 24 11.9939C24 5.42407 18.5637 0 11.9939 0C5.42407 0 0 5.42407 0 11.9939C0 18.5759 5.42407 24 12.0061 24ZM12.0061 16.0163C8.83697 16.0163 6.37481 17.1376 5.13154 18.4662C3.54698 16.7842 2.58405 14.5048 2.58405 11.9939C2.58405 6.76485 6.76485 2.57186 11.9939 2.57186C17.223 2.57186 21.4159 6.76485 21.4281 11.9939C21.4281 14.5048 20.4652 16.7842 18.8685 18.4662C17.6252 17.1376 15.1752 16.0163 12.0061 16.0163ZM12.0061 14.1513C14.2367 14.1757 15.9797 12.2499 15.9797 9.78771C15.9797 7.45962 14.2245 5.5094 12.0061 5.5094C9.77552 5.5094 8.00813 7.45962 8.02031 9.78771C8.0325 12.2499 9.76333 14.1392 12.0061 14.1513Z" fill="#BA7729"/>
</svg>
