<svg width="14" height="14" viewBox="0 0 14 14" fill="none" xmlns="http://www.w3.org/2000/svg">
<path d="M1.59292 13.9646C2.0708 13.9646 2.46018 13.8053 2.76106 13.4867L6.97345 9.25664L11.2035 13.4867C11.5221 13.7876 11.9115 13.9646 12.3717 13.9646C13.2743 13.9646 13.9823 13.2389 13.9823 12.3363C13.9823 11.9115 13.8053 11.5221 13.5044 11.2212L9.27434 6.97345L13.5221 2.72566C13.8407 2.38938 14 2.0354 14 1.61062C14 0.707965 13.292 0 12.3894 0C11.9469 0 11.5752 0.159292 11.2566 0.477876L6.97345 4.72566L2.74336 0.495576C2.44248 0.176991 2.0708 0.0353989 1.59292 0.0353989C0.690265 0.0353989 0 0.725664 0 1.61062C0 2.0354 0.159292 2.42478 0.477876 2.72566L4.70796 6.97345L0.477876 11.2389C0.159292 11.5221 0 11.9292 0 12.3363C0 13.2389 0.690265 13.9646 1.59292 13.9646Z" fill="white"/>
</svg>
