<svg id="Layer_1" data-name="Layer 1" xmlns="http://www.w3.org/2000/svg" viewBox="0 0 59.24 59.24"><defs><style>.cls-1{fill:#b05045;}</style></defs><path class="cls-1" d="M26.25,17.48v0Zm.19.37c0-.19,0,0-.19,0V18C26.25,17.85,26.25,17.85,26.44,17.85Zm33.18,1.89c.19.19.19,0,.38,0v0C59.81,19.55,59.81,19.55,59.62,19.74ZM3.69,37.51H3.5c0,.19-.19.19,0,.38A.59.59,0,0,0,3.69,37.51ZM58.3,19c0,.19.19.19.37.19C58.67,19.18,58.67,19,58.3,19ZM4.64,37.51c0-.19,0-.19-.19-.19C4.26,37.51,4.45,37.51,4.64,37.51Zm-.19,6.05v-.19H4.26A.19.19,0,0,1,4.45,43.56Zm4.17-2.84c.19,0,.19,0,.19-.19A.19.19,0,0,0,8.62,40.72ZM59.24,52.06c.19-.38,0-.94.19-1.32v-1c0-.37-.19-.75-.19-1.13-.19-.38-.38-.57-.38-.94,0-.19,0-.19-.19-.38s-.37-.38-.37-.57c-.19-.19-.19-.38-.38-.57H56.59c-.19,0-.19,0-.38.19-.19,0-.38.19-.57.19-.19.19-.57.38-.76.76,0,.19-.19.19-.38.38A10.87,10.87,0,0,1,52.8,49h-.19a3.68,3.68,0,0,1-1.52.75.7.7,0,0,0-.57.19.66.66,0,0,0-.38.19H50a9.6,9.6,0,0,1-1.32.57c-.19,0-.38.19-.57.19a25.81,25.81,0,0,1-4.74.19,5.55,5.55,0,0,1-1.71-.38,17.12,17.12,0,0,1-1.71-1c-.37-.18-.56-.56-.94-.75-.38-.38-.57-.76-1-.95l-.57-.56c-.19-.38-.76-.57-.95-1s-.38-.57-.57-.94-.19-.76-.38-1.14-.19-.56-.38-.94a2.7,2.7,0,0,1-.38-1.14c-.18-.37-.18-.75-.37-1.13,0-.38-.19-.76-.19-1.13V38.83A26.55,26.55,0,0,0,38,39a4.18,4.18,0,0,1,1.52.19h.56c1.14-.38,2.28-.19,3.42-.94a6,6,0,0,1,1.7-.57c.19,0,.19-.19.38-.19a1,1,0,0,1,.76-.38,9.26,9.26,0,0,0,1.33-.57c.19,0,.38-.18.57-.37.38-.19.76-.57,1.13-.76s.76-.57,1.14-.76c.19-.18.38-.18.57-.56l.19-.19c.19-.19.38-.19.57-.38s.38-.38.38-.57c.19-.19.38-.37.57-.37.19-.38.57-.57.76-1,0-.19.19-.19.19-.38.18-.38.56-.56.75-.94a9.93,9.93,0,0,1,1-1.51L56,27.68A6.61,6.61,0,0,1,57,26.17c.19-.38.57-.57.57-1.13a.19.19,0,0,1,.19-.19l.19-.19h-.38c0-.19.19,0,.19-.19l-.38.38c0-.19-.19-.19-.19-.38.19.38.38-.19.76-.19.19,0-.19,0-.19.19h.38a.19.19,0,0,1,.19-.19c.19-.57.56-1,.56-1.51v-.19a1.44,1.44,0,0,0,.38-.76c0-.56.57-.94.57-1.51-.19,0-.19.19-.19.38h-.38c0-.19.19-.19,0-.38,0-.19-.38,0-.38-.19-.37,0-.19.19-.37.38.18.19.18.38.37.76-.19,0-.19-.19-.37,0,0-.19.18-.19,0-.38-.19,0-.19.19-.38.19s-.19-.19-.38,0c.19-.19,0-.57.19-.76h.38v.19c.19,0,.19-.19.19-.38l-.19-.19c0-.19,0-.19.19-.19-.19-.19-.57.19-1,.19-.19,0,0-.19,0-.38.57,0,.57-.18.76-.56a.19.19,0,0,1,.19.19c.18,0,0-.19,0-.38.37-.19.37,0,.56.19a.19.19,0,0,1,.19-.19c.19-.19.19.19.19,0,.19.19-.19,0-.19.19-.19,0-.38,0-.38-.19a.84.84,0,0,0-.19.94c.38.19.38-.19.76,0,0-.19-.19-.19-.19-.37h.57a1.44,1.44,0,0,1,.38-.76c.19-.38.19-.76.38-1.13a2.53,2.53,0,0,0,.57-1.33,7.93,7.93,0,0,0,.38-2.08v-.56a2.41,2.41,0,0,0-.19-1.14.7.7,0,0,1-.57-.19h-.19c0,.38.19.57.38,1,.19,0,.19-.19,0-.19.19,0,.19-.19.38-.19-.19,0-.19.19-.19.38-.38,0-.19-.19-.57-.19,0-.19.38,0,.19-.19-.19,0-.19,0-.38.19-.19,0-.19-.57-.19-.38,0-.19.19-.19.38-.38-.19,0-.19,0-.38-.19-.19,0-.19,0-.38-.18l-.19-.19a.7.7,0,0,1-.57-.19l-.19.19c0,.19.38,0,.19.19h.19v.37s-.38,0-.19.38c-.19,0,0-.38-.19-.38a.35.35,0,0,0,0-.56h.19c-.19,0-.38-.19-.56-.19a3.23,3.23,0,0,0-1.33-.19v.38c.19,0,.19-.19.38-.19,0,.19,0,.19.19.19a4.42,4.42,0,0,0-1.52,1.13c0-.38,0-.57.38-.76,0-.18-.19,0-.19-.18.38,0,.57-.19.38-.57H57a31.07,31.07,0,0,0-4.17-.38H50.52a.7.7,0,0,0-.57.19c-.57,0-1.13.19-1.51.19h-.38c-.19.19-.57.19-.76.38a.66.66,0,0,0-.38.19c-.38,0-.76.37-1.14.37s-.57.19-1,.19a1.42,1.42,0,0,0-.94.38,3.06,3.06,0,0,0-1.33.76v.19c-.19,0-.19,0-.19-.19-.19.19-.38.19-.57.37a2.94,2.94,0,0,0-1.52.38,1.87,1.87,0,0,0-.94.76l-.19.19a.19.19,0,0,0-.19.19l-.19.19-.19.18-.57.57c-.38.38-.76.57-1.14.95-.19,0-.19.19-.38.19A14.74,14.74,0,0,0,34,19.93c-.19.19-.38,0-.38-.19V17.85c0-.19.19-.75,0-.94-.19-.38,0-.57-.19-.95V4.43c-.76-.18-.76-.37-.76-.56V3.11A2.37,2.37,0,0,0,32.51,2V1.79c0-.19-.19-.19-.19-.38a2.62,2.62,0,0,0-.76-.57.26.26,0,0,0-.38,0c-.38,0-.95.19-1.32.19a3.87,3.87,0,0,0-.95.19h-.38c-.38,0-.76.19-1.14.19-.19,0-.57.19-.57.38a1.5,1.5,0,0,0-.76.75v.19a1.14,1.14,0,0,1-.19.76v.94s.19,0,.19-.18c.19,0,0,.18-.19.37V8.78l.19.19c-.19-.19,0,0,0,.19V13.7c0,.18,0,.37.19.37a5.56,5.56,0,0,0,.19,2.65h.19c0,.19,0,.19-.19.19v.38h.38c0,.37-.38.75-.38,1.13v.19c0,.19.19.38.19.57v5.67c0,.19-.19.37-.19.56V26a.7.7,0,0,0,.19.57v1.13c0,.19.19.38.19.57v4a.67.67,0,0,0,.19.56v1.89c0,.19-.19.19-.38.19l-.57-.56a1.92,1.92,0,0,0-.94-.76c-1.14-.76-2.09-1.7-3.23-2.46-.57-.37-1.33-.75-1.89-1.13-.76-.38-1.33-.95-2.09-1.32a16.6,16.6,0,0,0-3.22-1.33H14.5c-.19,0-.19,0-.38-.19-.38-.18-.76-.18-1.14-.37a12.11,12.11,0,0,0-1.33-.38.7.7,0,0,1-.57-.19.56.56,0,0,0-.75,0,30.44,30.44,0,0,0-7-.19H3.12c-.19,0-.19,0-.19.19-.38.19-.38.57-.57.94s0,.95,0,1.52.19,1.13.19,1.7v.94A5.17,5.17,0,0,0,2.74,33v.38a37.05,37.05,0,0,0,.57,4.54.19.19,0,0,1,.19-.19c.19-.19,0,.19,0,.38.19-.19.38-.19.57-.38.19,0,.19.19.38.19,0,.19-.19.19-.38.19,0,0,.19.19,0,.19.19.37.38,0,.57,0a.69.69,0,0,1-.19.56c-.19-.38-.57,0-1-.19.19,1,.38,2.08.57,3,0,0,.19.19.19,0a.19.19,0,0,1-.19.19v.19c0,.18.19.37.19.56,0,0,.19-.19,0-.19,0-.19.19,0,.19.19H4.26V43a1.08,1.08,0,0,1,.38-.94c.38,0,.19.56,0,.56.19,0,.57.19.57-.19.19,0,.19,0,.19.19C5.21,42.61,5,43,5,43c-.19,0-.19.38-.57.57,0,.19.19.56.19.75.19-.19.38-.37.38-.56v.19c.38,0,0-.76.57-.57,0,.38.19.38.19.38-.19.19-.38.19-.57.56-.38,0-.38,0-.57.19.19.19.19.38,0,.38,0,.19.19.38.19.57.19.38.38.94.57,1.32V47a2.53,2.53,0,0,1,.94,1.13c.19.57.57.95.76,1.52v.18c.19.19.19.57.38.76a2.62,2.62,0,0,1,.57.76l.57.56.57.57a.19.19,0,0,0,.19.19.19.19,0,0,0,.19.19c.19.19.57.38.76.75l.19.19c.19.19.56.38.75.76.19.19.38.38.57.38v-.19c.19,0,.19-.19.38-.19a.66.66,0,0,1-.19.38l.19.19c.19,0,.19.19.38.19.38.18.57.37,1,.56l.19.19c.19,0,.19,0,.19.19.19,0,.19.19.38.19h.38a.66.66,0,0,1,.38.19,4.06,4.06,0,0,1,.94.57c.19,0,.19.18.38.18.76.38,1.71.76,2.47,1.14h.19c.19,0,.19.19.19,0,.19,0,0,0,0,.19a38.29,38.29,0,0,0,4.55.94h1.14c0-.19-.38-.38.19-.56-.19.18,0,.37.18.37v.19h.38v-.19h.38c-.19.19,0,.19-.19.38h.19A6.46,6.46,0,0,1,28,60h3c.19-.19.19-.19.38-.19.38,0,.57,0,.76-.38a.4.4,0,0,1,.38-.37.66.66,0,0,1,.19-.38,2.41,2.41,0,0,0,.19-1.14V56c0-.19-.19-.57-.19-.75A12.11,12.11,0,0,1,32.32,54c0-.19-.19-.19-.19-.38a.69.69,0,0,0-.19-.56c0-.19-.19-.19,0-.38l.19.19.57.57c.38.18.57.56.95.75a.19.19,0,0,1,.19.19l.19.19a3.45,3.45,0,0,1,1.32.94c.19.19.57.38.76.57.19,0,.19.19.38.19.38.19.76.57,1.14.57h.19c.38.19.57.38,1,.38.57.18,1.13.18,1.7.37h.19a.19.19,0,0,0,.19.19c.19,0,.38.19.57.19s.19.19.38.19c.38,0,.57.19,1,.19h.38a6.23,6.23,0,0,0,2.65,0,29.07,29.07,0,0,0,4-.76,19.91,19.91,0,0,0,5.88-2.26A21.37,21.37,0,0,0,59.24,52.06ZM58.3,21.44c.19,0,.19-.37.56-.37a.68.68,0,0,0-.19.56c0,.19-.18,0-.18,0-.19.19,0,.57,0,.76H58.3C58.3,22,58.49,21.82,58.3,21.44Zm1.89-5.67a.7.7,0,0,1-.57.19v-.19h-.38C59.62,15.59,59.81,16,60.19,15.77Zm-1.89-4a.67.67,0,0,0-.38.18C57.92,11.81,58.11,11.62,58.3,11.81Zm-.38,5.29c0,.19,0,.19-.19.19C57.73,17.1,57.73,17.1,57.92,17.1ZM26.25,7.27c-.19,0,.19-.38-.19-.19,0-.19.19-.19,0-.38C26.44,6.7,26.44,6.89,26.25,7.27Zm.19.57c-.19,0,0-.19,0-.38h.38C26.82,7.84,26.44,7.65,26.44,7.84ZM3.5,35.62c-.19,0-.19.19,0,.19H3.31v-.19Zm.38,1.32a.36.36,0,0,0-.57.19c-.38-.38-.19-.57-.38-.75.38,0,.19.18.57.18,0-.18,0-.18-.19-.18H3.5c0,.18,0,.37-.19.37.19,0,.38,0,.38-.19C3.88,36.56,3.88,36.75,3.88,36.94ZM3.5,38.83v-.38s.19.19.19,0C3.69,38.64,3.69,38.83,3.5,38.83ZM29.1,4.43c.19,0,0,.19.38,0,0,.38-.38,0-.38.38A.26.26,0,0,1,29.1,4.43ZM27.77,2.17c.19.19.57.19.95.56,0-.19.38-.19.38-.37,0,.37-.76.37-.76.94,0-.19-.19-.57.19-.57l-.19-.19c-.19,0,0,.19,0,.38H28c0-.19.19-.19.19-.38a.72.72,0,0,0-.57-.18C27.39,2.17,27.58,2.36,27.77,2.17Zm.95,5.67V7.46C29.1,7.46,29.1,8,28.72,7.84ZM27.58,6.51a.19.19,0,0,0,.19-.19.19.19,0,0,0,.19.19c-.19,0-.19.38-.38.38C27.58,6.7,27.77,6.7,27.58,6.51Zm.38.38a.66.66,0,0,1,.19.38c-.19,0-.19.19-.38.19C27.58,6.89,28,7.08,28,6.89Zm-.19-3.21c0-.19.19-.38,0-.38,0-.19.19.19.19,0v.19c.19,0,.19-.19.38-.19C28.15,3.68,28,3.68,27.77,3.68Zm.57.19c0,.19,0,.19-.19.19C28,3.87,28.15,3.87,28.34,3.87Zm0,2.27c-.38,0,0-.38-.38-.38C28.34,5.57,28.15,6,28.34,6.14Zm-.19.75h.19c0,.19,0,.19-.19.19Zm0-1.89c0-.19.19-.19.19-.38h.19c-.19.19,0,.38-.19.57A.19.19,0,0,0,28.15,5Zm-.38,1.14c-.19,0-.38,0-.38-.19C27.58,6,27.77,6,27.77,6.14Zm-.19,1.32a.19.19,0,0,1-.19.19c-.19-.19,0-.19-.19-.57C27.77,7.08,27.2,7.46,27.58,7.46Zm-.19-1.14H27C27,6.14,27.39,6.14,27.39,6.32Zm-1.9,35.54c0,.19,0,.37-.19.37s0-.18-.18-.18v-.38C25.12,41.86,25.3,41.86,25.49,41.86Zm-.19.75c-.18,0-.18-.19-.37-.19C25.12,42.42,25.49,42.42,25.3,42.61Zm-.18-3.78c0,.19-.19,0-.19.19a.19.19,0,0,1-.19-.19Zm-.76.38c0-.19.38,0,.38.19s-.19-.19-.38,0C24.17,39.4,24.55,39.21,24.36,39.21Zm-.95-2.46c-.19-.19,0-.56.38-.37C23.79,36.56,23.79,36.94,23.41,36.75ZM23.6,36h-.38v-.38C23.41,35.81,23.6,35.81,23.6,36Zm-1.14.56c0,.19,0,.19-.19.38-.38,0,0-.38-.38-.38,0-.18,0-.18.19-.18S22.27,36.38,22.46,36.56Zm-.38.76c.19,0,0,.38.19.19,0,.19-.19.19-.38.19C21.89,37.51,22.08,37.51,22.08,37.32Zm0-3c.19.19.19.75.19.94-.19,0-.19-.19-.57-.38,0-.37.19-.19.19-.56C21.89,34.49,21.89,34.49,22.08,34.3Zm-1.14-1.14c.38.19.57-.19.76,0-.19.19-.76,0-.76.38h-.19C20.75,33.16,20.94,33.16,20.94,33.16Zm-.19.19c.19,0,.19.19.38.19v.19c-.19.19-.38-.38-.57-.19A.19.19,0,0,0,20.75,33.35ZM8.24,42.42c-.19,0-.19.38-.57.19,0-.19-.19-.19,0-.38.19.19.19,0,.19-.18.19,0,.19-.19.57-.19A.68.68,0,0,0,8.24,42.42Zm.19,0c0,.19-.19.19-.38.19v-.19Zm-.38-1.7c-.19,0,0-.38-.19-.38s.19.19.19.19C8.24,40.72,8.05,40.72,8.05,40.72ZM7.48,40a.19.19,0,0,0,.19-.19c0,.38.38.19.38.38-.38-.19-.38.37-.76.18C7.48,40.34,7.67,40.16,7.48,40Zm-.38.56c0,.19-.19,0-.38,0v-.19H7.1C7.29,40.53,6.91,40.34,7.1,40.53Zm.19.76c.38-.19-.19.38.19.38-.19.19-.19-.19-.38-.19C7.1,41.48,7.48,41.29,7.29,41.29ZM7.1,40v.37c-.19-.18-.38,0-.95.19A1.77,1.77,0,0,1,7.1,40Zm-.38.75c0,.19.19.19.38.19,0,.19-.19.19-.38.19,0-.19-.19-.38-.38-.57C6.34,40.34,6.53,40.72,6.72,40.72ZM6,37.13l-.38.38C5.21,37.51,6,37.13,6,37.13Zm-.19,4c0-.19-.19.19-.19,0a.19.19,0,0,1-.19.19c.19-.19,0-.76.38-.76,0,.19-.19.19-.19.38a.19.19,0,0,0,.19-.19c0-.19.19,0,.19,0v-.19a.58.58,0,0,0,.37-.19c-.19.19,0,.57.19.76,0,.19-.38.38-.56.38-.19.19-.19.57-.57.57.19-.19.19-.19,0-.38h.38C5.4,41.29,5.59,41.1,5.78,41.1ZM4.64,36c.19,0,.19-.19.38-.19-.38,0-.19.38-.19.75v-.18c-.19,0-.19.18-.19,0C4.83,36.19,4.83,36.19,4.64,36Zm.19,1.51c.19,0,.19.19.19.38H4.83C4.64,37.89,4.83,37.51,4.83,37.51Zm0-.57h0c.19,0,.38.19.19.38C5,37.13,5,37.13,4.83,36.94Zm-.57.76v-.38h.38c.19,0,0,.19.19.38Zm0,4c-.19,0,0-.38.19-.19A.19.19,0,0,0,4.26,41.67Zm0-.76c.19,0,.19.19.38,0C4.64,41.1,4.07,41.1,4.26,40.91Zm.38-.19a1.33,1.33,0,0,1,.76-.38v.19a.19.19,0,0,1-.19.19Zm1,1.7A.7.7,0,0,1,5,42.23c0-.18.19-.18.38-.37.19.19.19.19.57,0C5.78,42.23,5.59,42.23,5.59,42.42Zm.19.76V42.8c.37,0,.37-.38.56-.57.19,0,0,.19,0,.38.38-.19.76-.56,1.14-.38-.19.38-.76.38-.76,1-.19,0-.38-.38-.57-.38,0,.19-.18.19-.18.38ZM7.29,43c0,.19-.19.19-.38.19C7.1,43,7.1,43,7.29,43Zm-.57,3.4c-.19,0-.19.19-.38,0v.19c-.19,0,0-.38,0-.38.19.19.38,0,.38-.19C6.91,46,6.53,46.2,6.72,46.39Zm1,.57c.19,0,0,0,0-.19.19,0,.19.38.38.19C8.24,47.34,7.48,47.34,7.67,47Zm.57-3.59c0-.38-.19-.38-.38-.38v.57c-.38,0-.38-.19-.38-.19-.19.38-.38.38-.57.75H6.53c0,.19-.19.38,0,.38-.19,0-.19.19-.38.19.19-.19.19-.38,0-.38A3.06,3.06,0,0,1,7.86,43c0-.19.19-.19.57-.19,0,.19,0,.38.19.38A.66.66,0,0,1,8.24,43.37Zm1.14.19c.19,0,.19,0,.19.19C9.38,43.75,9.38,43.94,9.38,43.56Zm.76-1.14c-.38-.37-.76,0-.57.38,0,.19.19,0,.38,0,0,.19,0,.38-.19.38,0,.19.38-.19.38,0s-.19.38-.57.38c0-.19.19-.19.19-.38-.19-.19-.57.19-.38.38-.19,0,0-.38-.19-.57h.57V42.8c0-.19-.19,0-.38-.19v-.38h.19c0-.37.19-.56-.19-.56-.19,0-.19,0-.19.19-.38-.19,0-.38,0-.57h.19c0,.19,0,.19.19.19,0,.19.19.19,0,.38.19,0,.19-.19.38-.19C10,42.05,10.33,42.05,10.14,42.42Zm1.7,11.72c-.19,0-.19.19-.38,0,0-.19.38-.19.19-.38C11.84,53.76,11.65,54,11.84,54.14Zm.95.19-.19-.19-.19.19c-.19,0-.19-.19-.38-.19,0-.19.19-.38-.19-.38a.7.7,0,0,1,.57-.19c-.19.19,0,.38.19.19a.19.19,0,0,0,.19.19Zm-.19-2.08c.19,0,.57,0,.57.38C13,52.44,12.79,52.25,12.6,52.25ZM13,54.9c-.19-.19,0-.19.19-.19C13.17,54.9,13.17,54.9,13,54.9Zm.19-7c-.19,0-.19-.18-.19-.37.38.19.38-.19.57-.38C13.74,47.53,13.36,47.72,13.17,47.9Zm1.33,5.3c0,.19-.19,0-.19.19h.19c-.19.18-.38-.38-.38,0V53.2h-.57c0-.19.19,0,.38-.19v-.19c-.38,0-.76,0-.19-.19l-.19-.19c.19,0,.38-.19.57-.38.38,0,0,.19.19.57h-.38s.38.19.38,0c.19.19.19.19.19.57-.19,0,0-.19-.19-.19v.19S14.5,53,14.5,53.2Zm1.89-.38c-.38,0-.38-.38,0-.38,0,0-.19.19,0,.19Zm1.14,3.59c-.19,0-.38.19-.57,0,0-.19.38.19.38-.38,0,.19,0,.19.19.38v-.19C17.72,56.22,17.34,56.22,17.53,56.41Zm.38-3.4v-.19c.19,0,0,.19.19.19Zm.95,3.4c0-.19.19-.19.38-.19C19.24,56.41,19.24,56.22,18.86,56.41Zm.19-4c.19,0,0,.38.19.57-.19,0-.19-.19-.38-.19,0-.19.19,0,.19,0h.19C19.05,52.82,19.05,52.63,19.05,52.44Zm0,1.32c0-.19,0-.37.38-.37C19.24,53.39,19.24,53.76,19.05,53.76Zm.57,1.52c-.19,0-.19-.19-.19-.38h.19C19.81,54.9,19.81,55.09,19.62,55.28Zm.94,2.64c-.18,0,0-.19,0-.19,0,.19.19,0,.19.19C20.75,57.92,20.56,57.73,20.56,57.92ZM20,56.6c0-.57.38-.19.75-.38C20.56,56.41,20.38,56.41,20,56.6ZM20.56,54c.19,0,0,.19.19.19C20.75,54.33,20.56,54.14,20.56,54Zm2.09,3.4c.19.38-.38,0-.38.57a.19.19,0,0,1-.19-.19c0-.38.38-.19.38-.56.38,0,.38.18.76,0v.18C23,57.54,22.84,57.35,22.65,57.35Zm1.9.19v-.19c.19,0,.19,0,.19.19C24.74,57.35,24.74,57.54,24.55,57.54Zm.57-1.13c0-.19,0,0-.19,0,0-.19.37,0,.37-.19C25.3,56.41,25.3,56.41,25.12,56.41Zm.75,0c-.19.19-.19,0,0,0h-.38v-.19h.38Zm.38,2.65c-.19,0,.19-.19,0-.38.19.19.38,0,.38.19C26.44,58.68,26.25,58.87,26.25,59.06Zm1.14-4.92H27a1.71,1.71,0,0,1-1-.19c-.38,0-.76-.19-1.13-.19h-.38c-.38,0-.95-.19-1.33-.19-.19,0-.38-.18-.57-.18,0,0,.19.18,0,.18s-.19,0-.19-.18h-.38c-.19,0-.57-.19-.76-.19a.19.19,0,0,1-.19-.19.7.7,0,0,0-.57-.19h-.18c0,.19.18.19-.19.38-.19-.19,0-.19,0-.38-.19,0-.38-.19-.57-.19-.19-.19-.57-.19-.76-.38a.41.41,0,0,1-.38-.38.19.19,0,0,1-.19-.19c-.19-.18-.57-.18-.76-.37s-.38-.19-.57-.57a.19.19,0,0,1-.19-.19h-.19c-.19-.19-.57-.38-.76-.76a2.74,2.74,0,0,0-.75-.56l-.57-.57-.57-.57-.57-.56h-.19v-.19L12.79,47a.19.19,0,0,0-.19.19.66.66,0,0,1-.19-.38h.19A2.62,2.62,0,0,1,12,46c-.19-.37-.57-.75-.76-1.13s-.56-.76-.75-1.13c-.19-.19-.19-.38-.38-.76v.19c-.38,0,0-.38-.38-.38.19,0,.19-.19.38-.19,0-.19-.19-.19-.19-.38s-.19-.37-.19-.56-.19-.38-.19-.57,0-.19-.19-.38a.19.19,0,0,0-.19.19c.76.38.57.19.76,0-.38,0-.38.38-.76.38.19-.19,0-.19,0-.57-.38.19-.95,0-.76-.38a1.19,1.19,0,0,0,.76-.18.18.18,0,0,1,.19.18c.19-.18.76,0,.76-.18v.18c0-.37-.19-.56-.38-.94,0-.19,0-.38-.19-.38a8,8,0,0,0-.19-.94.7.7,0,0,0-.19-.57v-.19C9,36.75,9,36,8.81,35.43c0-.19,0-.38-.19-.38a1.12,1.12,0,0,0-.19-.75V32.78c-.19-.56,1.9,0,2.28.19a2.39,2.39,0,0,1,1.13.19,2.7,2.7,0,0,1,1.14.38,2.7,2.7,0,0,1,1.14.38c.38.19.76.19,1.14.38a2.6,2.6,0,0,0,1.13.37,1.92,1.92,0,0,1,1.52.19c.38.19.57.57.95.76a4.15,4.15,0,0,1,.95.57l.57.56.18-.19c0,.19,0,.38.38.19a.36.36,0,0,1,0,.57l.57.57.76.75a3.34,3.34,0,0,0,.76,1c.19.38.57.57.76.94a4.15,4.15,0,0,0,.57.95l.57,1.13.56,1.14a2.62,2.62,0,0,1,.38,1.13A2.71,2.71,0,0,1,26.25,46c.19.38.19.76.38,1.14,0,.38.19.75.19,1.13.19.76.19,1.33.38,2.08v.57c.19.94.19,1.89.38,3A.19.19,0,0,0,27.39,54.14ZM27.2,42.61c0-.19-.19-.19-.38-.19v0c-.19,0,0,.19-.19.38,0,0-.38-.19-.38,0v-.19h.19s-.19-.56,0-.38a.19.19,0,0,0,.19.19c.38,0,.38-.56.95-.37C27.39,42.23,27.2,42.42,27.2,42.61Zm.38-31.37c-.38,0,.19-.38-.19-.38,0-.19.19-.19.19-.38.19,0,.19.19.38,0C27.58,10.67,27.58,10.86,27.58,11.24Zm.76-1.7c-.38-.19-.19.38-.76.38,0,.37.19-.19.19.18-.19,0-.38,0-.38.19-.19,0-.19-.19-.38-.37,0-.19.19,0,.19-.19H27c0-.19,0-.19.19-.19v.19h.19c-.19-.19,0-.19-.19-.38.38,0,.38-.19.76-.19-.38,0,0-.38-.57-.57.19-.19.19.19.38.19,0,.19.38.57.38.38C28.72,9.16,28.34,9.35,28.34,9.54Zm.19-1.14c0-.19.19-.19.38-.19C28.91,8.4,28.72,8.4,28.53,8.4Zm.76,4.16c-.19,0-.38,0-.38.19-.19-.19.38-.38.38-.57C29.67,12.18,29.1,12.18,29.29,12.56Zm0-3c.19,0,.19.38.38.38C29.29,10.1,29.48,9.73,29.29,9.54Zm.19-7.75V1.6c.19,0,.19.19.38.19ZM31.94,9a.7.7,0,0,0-.57.19C31.18,9,31.94,8.78,31.94,9ZM30.61,42.61c-.19,0,0-.38-.19-.19C30.61,42.23,30.8,42.42,30.61,42.61Zm.38,0c.19-.19-.19,0-.19-.38,0-.18.19-.18.19-.18C31.18,42.23,31.37,42.61,31,42.61Zm.38-32.88h0V9.35c.19,0,.38.19.57.19,0,.19-.38,0-.38.19-.19,0,0-.19,0-.19Zm.38,3.4c0,.19-.19,0-.38,0v-.38s.19.38.38.19S31.56,13.13,31.75,13.13Zm0-1.14c-.38,0,0-.37,0-.56C31.94,11.62,31.56,11.81,31.75,12Zm.76,30.24c0,.19-.38.19-.38.19-.19-.19,0-.56-.57-.56v-.19c.19-.19.38.19.38.19.19,0,.38-.19.57,0C32.51,42.05,32.32,42.05,32.51,42.23Zm19-13c-.19,0-.19.19-.19.38-.19,0-.38-.19-.57-.19,0-.19.19-.38.19-.75.19,0,.38,0,.38.19-.19,0-.19-.19-.19.18.19,0,.19,0,.19-.18.38.18,0,.18.19.37,0,0,0-.37.19-.19.19.38.38.19.57.57C51.85,29.38,51.85,29.19,51.47,29.19Zm0-2.26c-.19,0-.19-.38-.19-.38.19,0,0,.19.38.19C51.47,26.74,51.28,26.74,51.47,26.93Zm0,.56h.19c0,.19-.38.57-.57.19C51.28,27.68,51.47,27.68,51.47,27.49Zm.19.19c.19,0,.19,0,.19.19-.19,0-.38,0-.38.19C51.28,27.87,51.66,27.87,51.66,27.68Zm1.14,3.59h0a.86.86,0,0,1-.57-.56c.38,0,.76,0,.76.37A.19.19,0,0,0,52.8,31.27Zm0-1.13h-.38c-.19-.19.38,0,.19-.19,0-.19.19,0,.19-.19.38,0,.57.19.76.19C53.18,30.33,53,29.76,52.8,30.14Zm1.7-7.37c-.38-.19.38-.38,0-.57a.19.19,0,0,0,.19-.19C54.88,22.2,54.5,22.58,54.5,22.77Zm1.14.94v-.38c-.19.19-.19,0-.19-.18s.19.18.19,0a.72.72,0,0,0,.57.18A2.35,2.35,0,0,1,55.64,23.71Zm.57-.75C56,23,56,22.58,56,23c-.19-.19,0-.19-.38-.19.19-.19.38,0,.76,0A.19.19,0,0,0,56.21,23Zm.57-.95c-.19,0-.19,0-.19-.19.38,0,.38-.56.76-.19C57,21.82,56.78,21.82,56.78,22Zm.95-1.32c.38.19-.19.38-.19.57C57.54,21.07,57.92,21.07,57.73,20.69Zm-1.33-.38c.38-.19.57-.57,1-.57a.19.19,0,0,0-.19.19c0,.19.38,0,.19,0,.19,0,0,.19.19.19-.19,0-.38.19-.57.38.38.19.38-.38.57-.19-.19.38-.38.19-.57.38-.19,0-.19,0-.38-.19-.19,0,0,.19,0,.38H56c.38-.19.19-.19.38-.57-.38.19-.19.19-.38.19,0,.19-.38.19-.38.38,0-.19-.57-.38-.38.19-.19.19-.19-.38-.19-.57.38,0,.76-.19.76-.38A.36.36,0,0,1,56.4,20.31ZM56,17.66V18c-.19,0-.19.19-.38.19v.38c0,.19-.19-.19-.19.19-.19-.19.38-.57.57-.76,0-.38-.19.19-.38,0C55.64,17.66,55.83,17.66,56,17.66Zm-.57-6c0,.19-.19.37,0,.37-.19.38-.57,0-.76.38C54.69,12,55.07,11.81,55.45,11.62Zm-.38.94c0-.19.19-.19.38,0,0,.19,0,.38-.19.38C54.88,12.75,55.26,12.56,55.07,12.56Zm-1.32-1.13c.18-.19.37.19.56,0,0,.19.19.19.38.38-.19.37-.57.37-.76.56,0-.19.19,0,.19-.19s-.19,0-.19,0c0-.19,0-.19-.18-.19C53.56,11.62,53.93,11.62,53.75,11.43ZM45.21,17.1c0,.19-.38.38-.38,0C45,17.29,45,17.1,45.21,17.1Zm-.57.19c.19,0,0,.19-.19.37C44.26,17.48,44.64,17.48,44.64,17.29ZM41.8,16c0,.19-.19.19-.19.38C41.42,16.15,41.61,16,41.8,16Zm-.57-.56c.19,0,.19.56,0,.37C41,15.77,41.42,15.77,41.23,15.4Zm.19.75v.19c0,.19-.19-.19-.19-.19Zm0,.38c.38,0,0,.38-.19.57-.19,0,0-.38-.19-.19C41.23,16.72,41.61,16.53,41.42,16.53Zm-.57.57c.38.19-.19.19-.19.38C40.28,17.29,40.85,17.29,40.85,17.1Zm-.57-.76s.38.19.57,0c.19.38-.38,0-.38.19Zm.19.57s-.38,0-.38-.19C40.09,16.72,40.47,16.53,40.47,16.91Zm-3.22,4.35c.19.18.19.37.38.37-.19.19-.19-.19-.38-.19S37.25,21.44,37.25,21.26ZM34.41,31.65a26.54,26.54,0,0,1,3.22-7.94,12,12,0,0,1,1.52-2.27A16.75,16.75,0,0,1,43.89,18a21.88,21.88,0,0,1,9.86-1.89h1.7v.76A7.73,7.73,0,0,1,55.07,18l-.38,1.14-.38,1.13-.38,1.13-.37,1.14L53,23.71l-.57.95-.76.94-.76.95-.38.75-1,.76-.94.76-1,.75-1,.57-1.14.57-1,.37-1.13.38-1.14.38L41.23,32l-.95.38-1.13.19L38,32.78H34.78C34.41,32.78,34,33,34.41,31.65ZM38,50a.4.4,0,0,1,.38-.37C38.39,49.79,38.39,50.17,38,50Zm2.46,1.89c-.19-.19-.19-.19,0-.37C40.66,51.5,40.47,51.68,40.47,51.87ZM4.64,43.18A.19.19,0,0,0,4.83,43c-.19.19-.19-.19-.19,0C4.83,43,4.45,43.18,4.64,43.18Z" transform="translate(-2.28 -0.76)"/></svg>